<svg height="468" viewBox="0 0 594 468" width="594" xmlns="http://www.w3.org/2000/svg" xmlns:xlink="http://www.w3.org/1999/xlink"><linearGradient id="a" x1="0%" x2="154.759228%" y1="50%" y2="50%"><stop offset="0" stop-color="#ffcd76"/><stop offset="1" stop-color="#ff7154"/></linearGradient><linearGradient id="b" x1="71.150897%" x2="34.200858%" y1="40.601935%" y2="91.91565%"><stop offset="0" stop-color="#f7fbff"/><stop offset="1" stop-color="#d9ebff"/></linearGradient><linearGradient id="c" x1="0%" x2="100%" y1="95.854475%" y2="0%"><stop offset="0" stop-color="#00e5ff"/><stop offset="1" stop-color="#008cff"/></linearGradient><linearGradient id="d" x1="48.430593%" x2="113.272931%" y1="52.530217%" y2="5.987183%"><stop offset="0" stop-color="#00e5ff" stop-opacity="0"/><stop offset="1" stop-color="#008cff"/></linearGradient><linearGradient id="e" x1="0%" x2="110.642346%" y1="18.017408%" y2="83.616995%"><stop offset="0" stop-color="#176ee5"/><stop offset="1" stop-color="#1d3e94"/></linearGradient><linearGradient id="f" x1="0%" x2="100%" y1="95.854475%" y2="0%"><stop offset="0" stop-color="#00e5ff"/><stop offset="1" stop-color="#4faaf4"/></linearGradient><g fill="none" fill-rule="evenodd"><ellipse cx="260.353165" cy="7.749209" fill="#fff" fill-rule="nonzero" rx="5.869982" ry="5.872456" stroke="url(#a)" stroke-width="3.57"/><g transform="translate(.743445 36.743133)"><path d="m21.8 226.4s63.4-66.6 78.6-118.6c15-52 59.4-100.4 112.4-106.6s83.8 26 139 72.8 121.2 56.8 169.2 68.6c47.8 12 69.2 22.8 70.2 92.6s-48.4 138.4-107.8 154-151-28.6-213.4-24-103.6 49-166 33.8-85.8-37-100-82.8 17.8-89.8 17.8-89.8z" fill="url(#b)"/><path d="m576.931199 96.6227803v79.8451957c0 5.522847-4.477153 10-10 10h-52.269428" fill-rule="nonzero" stroke="url(#c)" stroke-dasharray="4.004" stroke-linecap="round" stroke-width="2.002"/><g fill="url(#c)" fill-rule="nonzero" transform="translate(35.445118 280.035237)"><rect height="23.998154" opacity=".547433" rx="5.9976" width="23.9904" x="7.7112"/><rect height="23.998154" opacity=".2" rx="5.9976" width="23.9904" y="8.568"/></g><path d="m503 287.8h-315.4c-5.4 0-9.8-4.4-9.8-9.8v-220.8c0-5.4 4.4-9.8 9.8-9.8h315.4c5.4 0 9.8 4.4 9.8 9.8v221c0 5.2-4.4 9.6-9.8 9.6z" fill="url(#c)" opacity=".3"/><path d="m524 262.8h-315.4c-5.4 0-9.8-4.4-9.8-9.8v-220.8c0-5.4 4.4-9.8 9.8-9.8h315.4c5.4 0 9.8 4.4 9.8 9.8v221c0 5.2-4.4 9.6-9.8 9.6z" stroke="url(#d)" stroke-width="1.43"/><path d="m261.4 47.4h-73.8c-5.4 0-9.8 4.4-9.8 9.8v221c0 5.4 4.4 9.8 9.8 9.8h73.8z" fill="url(#c)"/><g transform="translate(202.98897 82.631625)"><circle cx="18.382746" cy="18.29278" fill="url(#a)" fill-rule="nonzero" r="17.96256"/><g fill="#fff"><circle cx="18.382746" cy="11.63998" r="6.519744"/><path d="m18.3827463 36.2553402c6.519744 0 12.241152-3.592512 15.434496-8.781696-2.528064-5.98752-8.515584-10.245312-15.434496-10.245312s-12.90643196 4.257792-15.43449596 10.245312c3.060288 5.189184 8.78169596 8.781696 15.43449596 8.781696z" opacity=".7"/></g></g><path d="m225.172529 140.463509h-30.097506c-1.021829 0-1.857871-1.015263-1.857871-2.25614v-2.820175c0-1.240877.836042-2.25614 1.857871-2.25614h30.097506c1.021829 0 1.857871 1.015263 1.857871 2.25614v2.820175c0 1.240877-.836042 2.25614-1.857871 2.25614z" fill="#fff"/><path d="m245.104974 148.657835h-51.418674c-.281489 0-.469148-.363247-.469148-.908116v-2.17948c0-.544869.187659-.908116.469148-.908116h51.418674c.281489 0 .469149.363247.469149.908116v2.17948c.093829.544869-.18766.908116-.469149.908116z" fill="#fff" opacity=".5"/><path d="m225.172529 170.463509h-30.097506c-1.021829 0-1.857871-1.015263-1.857871-2.25614v-2.820175c0-1.240877.836042-2.25614 1.857871-2.25614h30.097506c1.021829 0 1.857871 1.015263 1.857871 2.25614v2.820175c0 1.240877-.836042 2.25614-1.857871 2.25614z" fill="#fff"/><path d="m245.104974 178.657835h-51.418674c-.281489 0-.469148-.363247-.469148-.908116v-2.17948c0-.544869.187659-.908116.469148-.908116h51.418674c.281489 0 .469149.363247.469149.908116v2.17948c.093829.544869-.18766.908116-.469149.908116z" fill="#fff" opacity=".5"/><path d="m225.172529 200.463509h-30.097506c-1.021829 0-1.857871-1.015263-1.857871-2.25614v-2.820175c0-1.240877.836042-2.25614 1.857871-2.25614h30.097506c1.021829 0 1.857871 1.015263 1.857871 2.25614v2.820175c0 1.240877-.836042 2.25614-1.857871 2.25614z" fill="#fff"/><path d="m245.104974 208.657835h-51.418674c-.281489 0-.469148-.363247-.469148-.908116v-2.17948c0-.544869.187659-.908116.469148-.908116h51.418674c.281489 0 .469149.363247.469149.908116v2.17948c.093829.544869-.18766.908116-.469149.908116z" fill="#fff" opacity=".5"/><path d="m503 47.4h-315.4c-5.4 0-9.8 4.4-9.8 9.8v12.8h334.8v-12.8c.2-5.4-4.2-9.8-9.6-9.8z" fill="#00c9ff"/><circle cx="194.2" cy="59.2" fill="#fff" fill-rule="nonzero" r="4.4"/><circle cx="206.8" cy="59.2" fill="#fff" fill-rule="nonzero" r="4.4"/><circle cx="219.2" cy="59.2" fill="#fff" fill-rule="nonzero" r="4.4"/><path d="m318.6 96.8h-41.2c-1.4 0-2.6-1.2-2.6-2.6v-9.2c0-1.4 1.2-2.6 2.6-2.6h41.2c1.4 0 2.6 1.2 2.6 2.6v9.2c0 1.4-1.2 2.6-2.6 2.6z" fill="url(#c)"/><path d="m332.6 109h-55.2c-1.4 0-2.6-1.2-2.6-2.6v-2.4c0-1.4 1.2-2.6 2.6-2.6h55.2c1.4 0 2.6 1.2 2.6 2.6v2.4c0 1.6-1 2.6-2.6 2.6z" fill="url(#c)"/><path d="m471.4 189h-193.8c-1.4 0-2.6-1.2-2.6-2.6v-63.4c0-1.4 1.2-2.6 2.6-2.6h193.8c1.4 0 2.6 1.2 2.6 2.6v63.4c0 1.4-1.2 2.6-2.6 2.6z" fill="#fff"/><path d="m372.4 109h-28.6c-1.4 0-2.6-1.2-2.6-2.6v-2.4c0-1.4 1.2-2.6 2.6-2.6h28.6c1.4 0 2.6 1.2 2.6 2.6v2.4c0 1.6-1 2.6-2.6 2.6z" fill="url(#c)"/><path d="m466.6 181.2h-183.4s18-25.4 32.6-27.4c14.6-1.8 25 11.2 37.4 8.8s33.4-28.4 44.4-32.2c11.2-4 25.2-1 31.8 3.2s37.2 47.6 37.2 47.6z" fill="url(#a)" fill-rule="nonzero"/><path d="m375.2 331.2h-89.2c-3.8 0-6.8-3-6.8-6.8v-106.8c0-3.8 3-6.8 6.8-6.8h89.2c3.8 0 6.8 3 6.8 6.8v106.8c0 3.8-3 6.8-6.8 6.8z" fill="url(#c)"/><g fill="#fff" fill-rule="nonzero" transform="translate(307.6 236.5)"><path d="m23.0898857 46.357536c-12.688614 0-22.97476804-10.286154-22.97476804-22.974768s10.28615404-22.974768 22.97476804-22.974768 22.974768 10.286154 22.974768 22.974768-10.286154 22.974768-22.974768 22.974768zm0-6.66c9.0103975 0 16.314768-7.3043704 16.314768-16.314768s-7.3043705-16.314768-16.314768-16.314768c-9.0103976 0-16.31476804 7.3043704-16.31476804 16.314768s7.30437044 16.314768 16.31476804 16.314768z" opacity=".4"/><path d="m23.0898857.408c1.8391082 0 3.33 1.49089178 3.33 3.33s-1.4908918 3.33-3.33 3.33c-9.0103976 0-16.31476804 7.3043704-16.31476804 16.314768s7.30437044 16.314768 16.31476804 16.314768c9.0103975 0 16.314768-7.3043704 16.314768-16.314768 0-1.8391082 1.4908917-3.33 3.33-3.33 1.8391082 0 3.33 1.4908918 3.33 3.33 0 12.688614-10.286154 22.974768-22.974768 22.974768s-22.97476804-10.286154-22.97476804-22.974768 10.28615404-22.974768 22.97476804-22.974768z"/></g><path d="m279.4 299.4v25c0 3.8 3 6.8 6.8 6.8h89.2c3.8 0 6.8-3 6.8-6.8v-25z" fill="#fff" opacity=".4"/><path d="m314.8 313h-26.4c-1 0-1.6-.8-1.6-1.6v-5c0-1 .8-1.6 1.6-1.6h26.4c1 0 1.6.8 1.6 1.6v5c0 .8-.8 1.6-1.6 1.6z" fill="#fff"/><path d="m314.8 227.2h-26.4c-1 0-1.6-.8-1.6-1.6v-5c0-1 .8-1.6 1.6-1.6h26.4c1 0 1.6.8 1.6 1.6v5c0 .8-.8 1.6-1.6 1.6z" fill="#fff"/><path d="m343.2 322.2h-54.8c-1 0-1.6-.8-1.6-1.6v-1.8c0-1 .8-1.6 1.6-1.6h54.8c1 0 1.6.8 1.6 1.6v1.8c.2.8-.6 1.6-1.6 1.6z" fill="#fff"/><g transform="translate(424 75)"><path d="m47.6 38.2 1.8 17.6s8.6 1.6 10.2.2-.6-17-.6-17l-3.4-7.2z" fill="#6fa9f6"/><path d="m34.6 16s2 19.8 4.6 22.8 6 5.2 12.2 3 5.8-11.2 5.8-11.2l1.4-8.6s-1.2-4.4-1.6-5-4.6-2.2-4.6-2.2l-10.4.8z" fill="#6fa9f6"/><path d="m52.8 4.4c-.4-.2-10.4-6.2-18.2-2.8-7.6 3.6-5.6 12.4-3 15.4 2.8 3 6.8 3.6 6.8 3.6s2.2-.2 4.2 1.6 2.8 6.4 2.8 6.4 4 .4 4.8 1 1.8 10.6 4.4 12.8c2.4 2.2 5-.2 5.8-1s3.6-10.4 7-14.6 4.4-8 4.4-12.6c-.2-4.8-3.6-7.2-6.8-7-2.8.6-12.2-2.8-12.2-2.8z" fill="#0029a3"/><g fill="#6fa9f6"><path d="m44.2 27.6s1.8-5.6 4.8-5.6 5.4 2.8 5.8 5.4-2.8 6.4-4.6 6.6-3.6-1-3.6-1z"/><path d="m40.2 318s1 8.6 0 10.2-13.2 8.4-15 11.2 14.6.6 19.8-.6 6-2.4 5.8-5.8-1-17-1-17z"/><path d="m86.2 87.8s11.6 18.6 10.8 21.4c-.8 3-13.2 26.2-14.6 27.8s-4.6 3.6-4.6 3.6.4 11.2 2.4 13c2 2 .4 1.2.4 1.2s4-5.2 6.6-7.8c2.8-2.6 23.2-33.6 24.4-37 1.2-3.6-14.6-32.4-14.6-32.4z"/><path d="m76 318s1 8.6 0 10.2-13.2 8.4-15 11.2 14.6.6 19.8-.6c5.2-1 6-2.4 5.8-5.8s-1-17-1-17z"/></g><path d="m33.8 130.8s-2.8 58.8-3.6 70.6.6 33.4 1 39.8c.6 6.6 7 76.2 7 76.2s2.4 3.2 7.2 2c5-1 6.6-3.6 6.6-3.6s-1.8-56.2-1-63.8-.2-11.8-.2-11.8l6.6-69.4 8.4 68.6 7.2 77s4.2 2.6 7.8 2.4 6.8-4.4 6.8-4.4l-.2-74.2-4.4-66.6 1.6-5s-.8-34-3.6-38c-3.2-3.6-47.2.2-47.2.2z" fill="url(#e)"/><g transform="translate(0 153)"><path d="m52.8 16-8.4 24.8c-.4 1.4-2 2-3.2 1.6l-37.6-12.6c-1.4-.4-2-2-1.6-3.2l8.4-24.8c.4-1.4 2-2 3.2-1.6l37.6 12.6c1.4.4 2.2 1.8 1.6 3.2z" fill="#fff"/><path d="m51.8 18.8-8.4 24.8c-.4 1.4-2 2-3.2 1.6l-37.6-12.6c-1.4-.4-2-2-1.6-3.2l8.4-24.8c.4-1.4 2-2 3.2-1.6l37.6 12.6c1.4.4 2.2 1.8 1.6 3.2z" fill="url(#a)" fill-rule="nonzero"/></g><path d="m76.2 54.4s4.6-1.6 7.6 1 17.6 24.8 18.6 27.4-12.2 11.6-14.4 11.8c-2 .2-9-1.2-9-1.2z" fill="url(#e)"/><path d="m34.8 57s9.2-4.2 21-5c12-.8 21 .6 22.6 1.2s5.4 35 4.6 43-3.4 24.8-2.6 29.4 2.4 10.2 1.6 13.2c-.8 3.2-18.4 1.6-25.2 1.6s-23.6 1-24.4-2c-.8-3.2 1.6-35.4 1.6-35.4s-2.4-40.6-1-43.8c1.2-3 1.8-2.2 1.8-2.2z" fill="url(#f)"/><path d="m29.8 92.6s5.8 22 5.2 25-8.2 43.8-9.4 47.8c-1.4 4-1.4 11.4-1.4 11.4s-5.4 12.4-5.8 12.8-2.4 3.8 2.4 5 9.8 3 11.8.6 2.4-14 2.2-15.6 15.8-53.8 16.4-57.2c.6-3.2-6.2-35.6-6.2-35.6z" fill="#6fa9f6"/><path d="m29.2 60.2s3.2-3.2 7.4-1.4 10.4 17.4 11.8 22.8 3 14.4 3 14.4-7.8 4.6-11.8 6.2-11.2.8-11.2.8-6.4-20-6.8-28c-.4-7.8 3-12.6 7.6-14.8z" fill="url(#e)"/></g><g fill-rule="nonzero"><path d="m85 167.8h-58.8c-2.4 0-4.2-2-4.2-4.2v-78.8c0-2.4 2-4.2 4.2-4.2h58.8c2.4 0 4.2 2 4.2 4.2v78.8c.2 2.4-1.8 4.2-4.2 4.2z" fill="url(#a)"/><path d="m22 145.8v17.8c0 2.4 2 4.2 4.2 4.2h58.8c2.4 0 4.2-2 4.2-4.2v-17.8z" fill="#fff" opacity=".5"/><path d="m35.8 137.4h-4.4c-1 0-1.6-.8-1.6-1.6v-8c0-1 .8-1.6 1.6-1.6h4.4c1 0 1.6.8 1.6 1.6v8c.2.8-.6 1.6-1.6 1.6z" fill="#fff" opacity=".5"/><path d="m45.2 95.2h-13.6c-1 0-1.6-.8-1.6-1.6v-2.4c0-1 .8-1.6 1.6-1.6h13.6c1 0 1.6.8 1.6 1.6v2.4c0 .8-.8 1.6-1.6 1.6z" fill="#fff"/><path d="m50.6 137.4h-4.4c-1 0-1.6-.8-1.6-1.6v-18.2c0-1 .8-1.6 1.6-1.6h4.4c1 0 1.6.8 1.6 1.6v18.2c.2.8-.6 1.6-1.6 1.6z" fill="#fff"/><path d="m65.4 137.4h-4.4c-1 0-1.6-.8-1.6-1.6v-25.4c0-1 .8-1.6 1.6-1.6h4.4c1 0 1.6.8 1.6 1.6v25.4c0 .8-.6 1.6-1.6 1.6z" fill="#fff" opacity=".7"/><path d="m80.2 137.4h-4.4c-1 0-1.6-.8-1.6-1.6v-33.4c0-1 .8-1.6 1.6-1.6h4.4c1 0 1.6.8 1.6 1.6v33.4c0 .8-.8 1.6-1.6 1.6z" fill="#fff"/></g><g transform="translate(86 78)"><path d="m52.6 328s-2.4 15.4-1.8 18.6 7.2 3.6 9.2 3.8c1.8.2 11.8 1.4 13.2.6 1.4-.6-2.6-4.2-5.4-5.4s-6.6-.4-6.2-6.6.2-10.8.2-10.8z" fill="#6fa9f6"/><path d="m20.2 331.8s1 9.8 1 12.6c.2 2.8-1.8 2.8-4.2 3.2s-14.4.2-15.4 0 4.4-3.2 6-5.4c1.6-2.4 3.4-11.2 3.4-11.2z" fill="#6fa9f6"/><path d="m68.6 151.6s13.2 85.8 13.6 92-18 88.6-18.2 89.4-3.6 2.6-6.6 2.2c-3.2-.4-7.2-3.4-7.2-3.4s5.2-40.8 7.2-53.8 5.6-29.4 5.6-29.4-8.6-27.4-12-38.6c-3.4-11.4-5.6-23.8-5.6-23.8s-12.6 60-14.2 63.8c-1.6 4-9.4 82.8-9.4 82.8s-2.6 2.2-6.2 2c-3.8-.2-7.6-2.8-7.6-2.8s1.2-73.8 2.2-82 8.6-92 8.6-94.8c0-3 15.2-4 22.8-5 7.8-1.2 27 1.4 27 1.4z" fill="url(#e)"/><path d="m84.8 89.2 7.2 17s17.6-25.8 18-27.8c.6-2-1-4.6 0-7.6 1-3.2 2.4-7.6 3.4-8.2s.8 6.8.8 6.8 5.6-6.8 6.8-8.6 3-2.2 3-2.2 1.8.4 3.2 2.6-.6 7.8-1.2 9.8-3.6 8.2-5 9.2-4.6 1.6-4.6 1.6-17 35.2-19.2 37.4-6.6 5.8-11 2c-4.6-3.8-14-18.8-14-18.8z" fill="#6fa9f6"/><path d="m73.2 64.8s4-2 5.4-.2c1.4 2 11.6 33.4 11.6 33.4s-2 3-6.8 5-8.8 4.6-10.6 4.2c-2-.6-6.8-11-7.2-11.4-.2-.4-.6-10.6-.6-10.6v-9.2l1-5z" fill="url(#e)"/><path d="m14.8 64s16-8 25.8-9.4 11 0 19.6 2.8c8.4 2.8 15.4 3.2 17.8 6.2 2.4 3.2 1.2 25.6.6 29.4s-5.2 21.4-6.2 25.2-4 16.2-2.8 19.8 2.6 14.4 2 16.4-18.4 2.8-26.6 3.2c-8.4.4-26-.8-28-2.8s.8-16.6 2.2-22.4 3-15.8 2.2-27c-.8-11.4-7.6-32.8-7.4-36 .2-3.6.8-5.4.8-5.4z" fill="url(#f)"/><g transform="translate(36 90)"><path d="m32 11.8-13.6-3c-1.8-.4-3-2.2-2.6-4l.4-1.8c.4-1.8 2.2-3 4-2.6l13.6 3c1.8.4 3 2.2 2.6 4l-.4 1.8c-.4 1.8-2.2 3-4 2.6z" fill="url(#a)" fill-rule="nonzero"/><path d="m30.2 52.8-27.2-6c-1.8-.4-3-2.2-2.6-4l7.8-35.4c.4-1.8 2.2-3 4-2.6l27.2 6c1.8.4 3 2.2 2.6 4l-7.8 35.4c-.4 1.8-2.2 3-4 2.6z" fill="#fff"/></g><path d="m18.6 96.8s-2.6 10.6-2.4 12.4c.2 1.6 25 7.6 32.6 9.2s15 5 15 5 2.4-1 4.6-.2 4 5.2 4.4 5.4c.6.2 2-1 2.4-.6.6.2 2 3 1.4 5.2s-6.4 5.6-8 6.2-3.4 0-3.4 0l-6.8-6.6s-39.4-6.8-44.4-7.8-11.6-.4-12.8-9.6 4.4-23.4 4.4-23.4l12.6 4.6v.2z" fill="#6fa9f6"/><path d="m16.6 64.2s3.6 5.8 5.4 10 2 13.2 1.8 18c-.2 4.6-3.4 12.4-4.8 12.6s-15.6-.8-17.6-4.2 2.8-22.2 6-28.2 4.8-9 9.2-8.2z" fill="url(#e)"/><path d="m55.6 45.8s-1 6.2-.8 7.2 2 2.8 2 3.6c0 .6-3.8 4.2-7.2 4.2s-8-2.8-8.6-5 .4-12.2.6-12.6c0-.4-.2-7.8 1.8-9.6s5-2 5.2-2 3.4 5.2 3.4 5.2z" fill="#6fa9f6"/><path d="m69.8 21.8c-.2.2-1.2 17.4-1.6 20.2-.4 2.6-3.8 7-11.4 6.8-7.8-.2-10.8-4-12.4-9-1.6-5.2.2-22 .2-22.2s5.6-3.2 5.8-3.4 14.8-2.4 14.8-2.4 2 2.4 2.4 2.8c.6.4 2.2 7.2 2.2 7.2z" fill="#6fa9f6"/><path d="m63.4 17.8s.4 4.6 2.4 7.8 3.2 3.6 3.2 3.6 7.2-2 8.4-7 .8-10.6-1.4-12c-2.2-1.6-7-2.2-7-2.2s-4.2-8.4-12-7.4-17.6 3-20.8 7.4-5 11.2-2.6 16.2c2.2 5 4 9 5 12s1.6 7.6 2.8 7.2 1.4-5.4 2.2-7.2c1-1.8 2.6-1.8 2.6-2.4s-1.2-5-.4-7.4 1.8-5 1.8-5 4.6 2.6 8.4 1.4c4-1.4 7.4-5 7.4-5z" fill="#0029a3"/><path d="m46.4 31s-2.6-3-4.2-3-3.6 1.8-3.8 3.6c-.4 1.8 1.4 6 3.4 7.2s2.8.8 3.8.4 2.8-1.8 2.8-1.8z" fill="#6fa9f6"/></g><ellipse cx="576.100099" cy="90.692692" fill="#fff" fill-rule="nonzero" rx="7.630976" ry="7.634192" stroke="url(#a)" stroke-width="4.641"/></g></g></svg>