<svg height="610" viewBox="0 0 705 610" width="705" xmlns="http://www.w3.org/2000/svg" xmlns:xlink="http://www.w3.org/1999/xlink"><linearGradient id="a" x1="71.150897%" x2="34.200858%" y1="43.531855%" y2="78.848119%"><stop offset="0" stop-color="#f7fbff"/><stop offset="1" stop-color="#d9ebff"/></linearGradient><linearGradient id="b" x1="0%" x2="154.759228%" y1="50%" y2="50%"><stop offset="0" stop-color="#ffcd76"/><stop offset="1" stop-color="#ff7154"/></linearGradient><linearGradient id="c"><stop offset="0" stop-color="#00e5ff"/><stop offset="1" stop-color="#008cff"/></linearGradient><linearGradient id="d" x1="17.743488%" x2="82.256512%" xlink:href="#c" y1="95.854475%" y2="0%"/><linearGradient id="e" x1="0%" x2="100%" xlink:href="#c" y1="95.780606%" y2=".080548%"/><linearGradient id="f" x1="48.430593%" x2="113.272931%" y1="52.526141%" y2="6.058086%"><stop offset="0" stop-color="#00e5ff" stop-opacity="0"/><stop offset="1" stop-color="#008cff"/></linearGradient><linearGradient id="g" x1="0%" x2="100%" xlink:href="#c" y1="77.926187%" y2="19.549116%"/><linearGradient id="h" x1="0%" x2="100%" xlink:href="#c" y1="59.222545%" y2="39.943681%"/><linearGradient id="i" x1="0%" x2="100%" xlink:href="#c" y1="50.477452%" y2="49.479384%"/><linearGradient id="j" x1="0%" x2="100%" xlink:href="#c" y1="95.854475%" y2="0%"/><linearGradient id="k"><stop offset="0" stop-color="#176ee5"/><stop offset="1" stop-color="#1d3e94"/></linearGradient><linearGradient id="l" x1="0%" x2="110.642346%" xlink:href="#k" y1="18.017408%" y2="83.616995%"/><linearGradient id="m" x1="0%" x2="100%" xlink:href="#c" y1="50.320657%" y2="49.650354%"/><linearGradient id="n" x1="0%" x2="100%" xlink:href="#c" y1="51.891288%" y2="47.937729%"/><linearGradient id="o" x1="26.230228%" x2="73.769772%" xlink:href="#c" y1="95.854475%" y2="0%"/><linearGradient id="p" x1="46.520468%" x2="53.479532%" xlink:href="#c" y1="95.854475%" y2="0%"/><linearGradient id="q" x1="46.520468%" x2="54.220139%" xlink:href="#k" y1="18.017408%" y2="83.616995%"/><linearGradient id="r" x1="0%" x2="110.642346%" xlink:href="#k" y1="35.040775%" y2="65.723684%"/><linearGradient id="s"><stop offset="0" stop-color="#fff"/><stop offset=".3877" stop-color="#eef4ff"/><stop offset="1" stop-color="#c4daff"/></linearGradient><linearGradient id="t" x1="34.818521%" x2="71.110355%" xlink:href="#s" y1="-38.739354%" y2="104.099439%"/><linearGradient id="u" x1="14.849846%" x2="85.150154%" xlink:href="#c" y1="95.854475%" y2="0%"/><linearGradient id="v" x1="41.101452%" x2="58.898549%" xlink:href="#c" y1="95.854475%" y2="0%"/><linearGradient id="w" x1="47.910113%" x2="52.089887%" xlink:href="#c" y1="95.854475%" y2="0%"/><linearGradient id="x" x1="45.839714%" x2="54.160286%" xlink:href="#c" y1="95.854475%" y2="0%"/><linearGradient id="y" x1="0%" x2="110.642346%" xlink:href="#k" y1="45.175147%" y2="55.071416%"/><linearGradient id="z"><stop offset="0" stop-color="#36c9ff"/><stop offset="1" stop-color="#fff"/></linearGradient><linearGradient id="A" x1="-8.570719%" x2="99.73574%" xlink:href="#z" y1="131.29327%" y2="0%"/><linearGradient id="B" x1="28.982086%" x2="80.816754%" xlink:href="#z" y1="100%" y2="0%"/><linearGradient id="C" x1="0%" x2="100%" xlink:href="#c" y1="84.448965%" y2="12.436638%"/><linearGradient id="D" x1="0%" x2="110.642346%" xlink:href="#k" y1="25.972526%" y2="75.255347%"/><linearGradient id="E"><stop offset="0" stop-color="#166fe6"/><stop offset="1" stop-color="#032964"/></linearGradient><linearGradient id="F" x1="88.120966%" x2="22.521379%" xlink:href="#E" y1="9.819178%" y2="91.385718%"/><linearGradient id="G" x1="24.195066%" x2="81.297434%" xlink:href="#k" y1="18.017408%" y2="83.616995%"/><linearGradient id="H" x1="23.393152%" x2="82.270033%" xlink:href="#k" y1="18.017408%" y2="83.616995%"/><linearGradient id="I" x1="35.417087%" x2="91.658491%" xlink:href="#z" y1="104.705514%" y2="0%"/><linearGradient id="J" x1="88.120966%" x2="22.521379%" xlink:href="#E" y1="47.977792%" y2="52.082847%"/><linearGradient id="K" x1="-11.759529%" x2="135.878694%" xlink:href="#s" y1="47.758707%" y2="51.366391%"/><linearGradient id="L" x1="-11.759529%" x2="135.878694%" xlink:href="#s" y1="48.828819%" y2="50.714004%"/><mask id="M" fill="#fff"><path d="m79.5710801 156.299707c-21.0750896-1.02775-39.202941-12.072556-54.383554-33.134416-22.77091957-31.5927908-26.51894348-71.3947707-24.64493152-85.3078522 1.87401195-13.9130814 9.11953004-24.0272889 11.83442892-24.0272889h64.4059832c6.6931952 0 24.1554473-4.41817024 52.3867573-13.25451074 10.318022 3.81706428 14.538579 17.74833604 12.661674 41.79381524-2.815359 36.0682188-3.140304 47.2298141-16.862387 76.9027036-9.148056 19.781926-24.280713 32.124443-45.3979709 37.027549z" fill="#fff" fill-rule="evenodd"/></mask><g fill="none" fill-rule="evenodd"><path d="m159.245374 299.820479s13.029891 35.797911-3.977545 64.463671c-17.007437 28.66576-71.7329784 78.179345-84.0770855 138.254-12.3441071 60.074654 31.9575215 121.246563 147.3063445 103.690499 115.348824-17.556063 129.750282-86.683063 205.323649-110.136866 75.573367-23.453804 183.104255-33.877717 239.887148-88.054631 56.645736-54.039758 56.645736-192.979541-13.715674-248.939494-70.361411-56.097109-194.213952-92.580803-292.692496-70.3614102-98.478543 22.2193932-147.306345 50.8851522-181.869845 101.0845212s-16.184496 109.99971-16.184496 109.99971z" fill="url(#a)"/><path d="m308.314 267.32h-165.165c-3.432 0-6.149-2.717-6.149-6.149v-165.022c0-3.432 2.717-6.149 6.149-6.149h165.165c3.432 0 6.149 2.717 6.149 6.149v165.165c0 3.289-2.717 6.006-6.149 6.006z" fill="url(#b)"/><path d="m213.057 121.729h-53.625c-1.859 0-3.432-1.573-3.432-3.432v-7.865c0-1.859 1.573-3.432 3.432-3.432h53.625c1.859 0 3.432 1.573 3.432 3.432v7.865c0 1.859-1.573 3.432-3.432 3.432z" fill="#fff"/><path d="m243.659 137.867h-84.227c-1.859 0-3.432-1.573-3.432-3.432v-3.003c0-1.859 1.573-3.432 3.432-3.432h84.227c1.859 0 3.432 1.573 3.432 3.432v3.003c-.143 1.859-1.573 3.432-3.432 3.432z" fill="#fff" opacity=".4"/><path d="m181.668888 507.919976h-59.488c-3.432 0-6.149-2.717-6.149-6.149v-77.077c0-3.432 2.717-6.149 6.149-6.149h59.488c3.432 0 6.149 2.717 6.149 6.149v77.077c-.143 3.432-2.86 6.149-6.149 6.149z" fill="url(#d)" opacity=".3"/><path d="m193.108888 496.479976h-59.488c-3.432 0-6.149-2.717-6.149-6.149v-77.077c0-3.432 2.717-6.149 6.149-6.149h59.488c3.432 0 6.149 2.717 6.149 6.149v77.077c-.143 3.432-2.86 6.149-6.149 6.149z" fill="#fff"/><path d="m652.996888 339.751976h-165.165c-3.432 0-6.149-2.717-6.149-6.149v-165.022c0-3.432 2.717-6.149 6.149-6.149h165.165c3.432 0 6.149 2.717 6.149 6.149v165.165c-.143 3.289-2.86 6.006-6.149 6.006z" fill="url(#e)" opacity=".3"/><path d="m673.016888 308.291976h-165.165c-3.432 0-6.149-2.717-6.149-6.149v-165.022c0-3.432 2.717-6.149 6.149-6.149h165.165c3.432 0 6.149 2.717 6.149 6.149v165.165c-.143 3.289-2.86 6.006-6.149 6.006z" stroke="url(#f)" stroke-width="1.43"/><path d="m553.897888 313.296976h-57.629c-.429 0-.858-.429-.858-.858v-9.724c0-.429.429-.858.858-.858h57.629c.429 0 .858.429.858.858v9.724c0 .429-.429.858-.858.858z" fill="#fff"/><path d="m537.934825 324.736976h-42.147875c-.311437 0-.519062-.286-.519062-.715v-5.577c0-.429.207625-.715.519062-.715h42.147875c.311438 0 .519063.286.519063.715v5.577c0 .429-.207625.715-.519063.715z" fill="#fff" opacity=".5"/><path d="m572.4267 324.736976h-28.191625c-.208312 0-.347187-.286-.347187-.715v-5.577c0-.429.138875-.715.347187-.715h28.191625c.208313 0 .347188.286.347188.715v5.577c0 .429-.138875.715-.347188.715z" fill="#fff" opacity=".5"/><path d="m642.414888 294.420976h-142.571c-2.574 0-4.576-2.002-4.576-4.576v-109.252c0-2.574 2.002-4.576 4.576-4.576h142.571c2.574 0 4.576 2.002 4.576 4.576v109.252c0 2.574-2.002 4.576-4.576 4.576z" fill="url(#g)"/><path d="m597.369888 472.598976h-228.371c-3.289 0-5.863-2.717-5.863-5.863v-95.953c0-3.289 2.717-5.863 5.863-5.863h228.371c3.289 0 5.863 2.717 5.863 5.863v95.953c.143 3.289-2.574 5.863-5.863 5.863z" fill="url(#h)"/><rect fill="url(#i)" height="7.15" rx="3.575" width="70.07" x="532" y="485"/><g fill="#fff" transform="translate(207 151)"><circle cx="45.761" cy="46.046" opacity=".3" r="45.474"/><path d="m45.761.572c-.143 0-.286 0-.572 0v45.617l39.754 22.88c4.004-6.721 6.292-14.586 6.292-23.166 0-24.882-20.306-45.331-45.474-45.331z"/></g><g fill="#fff" opacity=".4"><path d="m510.425888 175.873976h1.43v118.404h-1.43z"/><path d="m527.156888 175.873976h1.43v118.404h-1.43z"/><path d="m544.030888 175.873976h1.43v118.404h-1.43z"/><path d="m560.904888 175.873976h1.43v118.404h-1.43z"/><path d="m577.635888 175.873976h1.43v118.404h-1.43z"/><path d="m594.509888 175.873976h1.43v118.404h-1.43z"/><path d="m611.383888 175.873976h1.43v118.404h-1.43z"/><path d="m628.114888 175.873976h1.43v118.404h-1.43z"/></g><g transform="translate(.990326 249)"><circle cx="27.648866" cy="27.807193" fill="#0029a3" r="18.819441"/><circle cx="27.648866" cy="27.807193" fill="url(#j)" opacity=".3" r="27.599183"/><path d="m35.0433371 18.6193761c.7224716-1.0798077 2.1835077-1.3694859 3.2633154-.6470143s1.3694859 2.1835076.6470143 3.2633153l-10.9730491 16.4003453c-.8436036 1.260852-2.6424541 1.4053299-3.6764807.295283l-8.1636485-8.7638296c-.8855518-.9506566-.8327741-2.4391975.1178825-3.3247494.9506565-.8855519 2.4391975-.8327741 3.3247493.1178824l6.13898 6.5903101z" fill="#fefefe"/></g><g fill="#fff" opacity=".4"><path d="m495.124888 192.747976h151.58v1.43h-151.58z"/><path d="m495.124888 209.621976h151.58v1.43h-151.58z"/><path d="m495.124888 226.495976h151.58v1.43h-151.58z"/><path d="m495.124888 243.226976h151.58v1.43h-151.58z"/><path d="m495.124888 260.100976h151.58v1.43h-151.58z"/><path d="m495.124888 276.974976h151.58v1.43h-151.58z"/></g><path d="m526.584888 279.977976s8.151-16.302 19.734-16.016 13.299 4.433 21.021.286 6.864-16.016 13.871-19.734 13.585.715 19.305-.286 8.151-1.001 9.152-11.869-3.003-11.869 3.003-19.305 18.733-3.003 18.733-3.003" stroke="#fff" stroke-width="1.43"/><circle cx="629.687888" cy="209.049976" fill="#fff" opacity=".6" r="6.149"/><circle cx="629.687888" cy="209.049976" fill="url(#b)" r="3.575"/><circle cx="640.841888" cy="146.844976" fill="url(#b)" r="6.006"/><circle cx="620.535888" cy="146.844976" fill="url(#b)" r="6.006"/><circle cx="600.086888" cy="146.844976" fill="url(#b)" r="6.006"/><g fill="#fff"><path d="m395.453888 455.295976h-10.868c-1.287 0-2.431-1.001-2.431-2.431v-31.317c0-1.287 1.001-2.431 2.431-2.431h10.868c1.287 0 2.431 1.001 2.431 2.431v31.317c-.143 1.43-1.144 2.431-2.431 2.431z" opacity=".3"/><path d="m426.627888 455.295976h-10.868c-1.287 0-2.431-1.001-2.431-2.431v-56.342c0-1.287 1.001-2.431 2.431-2.431h10.868c1.287 0 2.431 1.001 2.431 2.431v56.342c0 1.43-1.144 2.431-2.431 2.431z" opacity=".6"/><path d="m457.944888 455.295976h-10.868c-1.287 0-2.431-1.001-2.431-2.431v-45.474c0-1.287 1.001-2.431 2.431-2.431h10.868c1.287 0 2.431 1.001 2.431 2.431v45.474c-.143 1.43-1.144 2.431-2.431 2.431z" opacity=".5"/><path d="m489.118888 455.295976h-10.868c-1.287 0-2.431-1.001-2.431-2.431v-65.637c0-1.287 1.001-2.431 2.431-2.431h10.868c1.287 0 2.431 1.001 2.431 2.431v65.637c0 1.43-1.001 2.431-2.431 2.431z"/><path d="m520.435888 455.295976h-10.868c-1.287 0-2.431-1.001-2.431-2.431v-47.19c0-1.287 1.001-2.431 2.431-2.431h10.868c1.287 0 2.431 1.001 2.431 2.431v47.19c0 1.43-1.144 2.431-2.431 2.431z" opacity=".3"/><path d="m551.752888 455.295976h-10.868c-1.287 0-2.431-1.001-2.431-2.431v-55.77c0-1.287 1.001-2.431 2.431-2.431h10.868c1.287 0 2.431 1.001 2.431 2.431v55.77c-.143 1.43-1.144 2.431-2.431 2.431z" opacity=".6"/><path d="m582.926888 455.295976h-10.868c-1.287 0-2.431-1.001-2.431-2.431v-37.323c0-1.287 1.001-2.431 2.431-2.431h10.868c1.287 0 2.431 1.001 2.431 2.431v37.323c0 1.43-1.144 2.431-2.431 2.431z" opacity=".6"/></g><circle cx="163.364888" cy="443.569976" fill="url(#l)" r="19.305"/><circle cx="163.364888" cy="436.419976" fill="#fff" r="7.007"/><path d="m163.364888 462.874976c7.007 0 13.156-3.861 16.588-9.438-2.717-6.435-9.152-11.011-16.588-11.011s-13.871 4.576-16.588 11.011c3.289 5.577 9.438 9.438 16.588 9.438z" fill="#fff" opacity=".5"/><path d="m182.097888 481.178976h-37.609c-1.001 0-1.716-.715-1.716-1.716s.715-1.716 1.716-1.716h37.609c1.001 0 1.716.715 1.716 1.716s-.715 1.716-1.716 1.716z" fill="url(#m)"/><path d="m174.947888 474.743976h-23.309c-1.001 0-1.716-.858-1.716-1.716v-2.002c0-1.001.858-1.716 1.716-1.716h23.309c1.001 0 1.716.858 1.716 1.716v2.002c.143.858-.715 1.716-1.716 1.716z" fill="url(#n)"/><path d="m538.024888 260.958976c0 6.435-5.291 21.164-11.726 21.164s-11.726-14.586-11.726-21.164c0-6.435 5.291-11.726 11.726-11.726s11.726 5.291 11.726 11.726z" fill="url(#b)"/><circle cx="526.298888" cy="260.958976" fill="#fff" r="6.149"/><path d="m29.990326 297v32.834424c0 11.056741 8.9632593 20.02 20.02 20.02h10.8765021c11.0567407 0 20.02 8.963259 20.02 20.02v50.147052c0 11.05674 8.9632593 20.02 20.0199999 20.02h27.68906" stroke="url(#o)" stroke-dasharray="4.004" stroke-linecap="round" stroke-width="2.002"/><g transform="translate(327 16)"><path d="m0 163.002044v-97.004715c0-5.5228475 4.4771525-10 10-10h23c5.5228475 0 10-4.4771525 10-10v-45.997329" stroke="url(#p)"/><path d="m28 163.002044v-75.241842c0-5.5228475 4.4771525-10 10-10h23c5.5228475 0 10-4.4771525 10-10v-67.760202" stroke="#1b3668"/><path d="m84 163.002044v-60.268567c0-5.5228477 4.4771525-10.0000002 10-10.0000002h23c5.522847 0 10-4.4771525 10-10v-82.7334768" stroke="url(#b)"/><path d="m57 163.002044v-110.3748486c0-5.5228475 4.4771525-10 10-10h23c5.5228475 0 10-4.4771525 10-10v-32.6271954" stroke="url(#q)"/></g><rect fill="url(#r)" height="119" rx="4" width="174" x="291" y="179"/><path d="m406 179h55c2.209139 0 4 1.790861 4 4v111c0 2.209139-1.790861 4-4 4h-55z" fill="url(#t)" opacity=".615537"/><circle cx="320.041" cy="203.041" fill="url(#b)" r="8.041"/><path d="m373.661 202.695h-37.247c-1.326 0-2.414-1.088-2.414-2.414v-.867c0-1.326 1.088-2.414 2.414-2.414h37.247c1.326 0 2.414 1.088 2.414 2.414v.867c0 1.326-1.088 2.414-2.414 2.414z" fill="#6fa9f6"/><path d="m358.497 209.468h-22.763c-.952 0-1.734-.782-1.734-1.734s.782-1.734 1.734-1.734h22.763c.952 0 1.734.782 1.734 1.734 0 .969-.782 1.734-1.734 1.734z" fill="#6fa9f6"/><path d="m325.299682 293.451h-8.755c-1.037 0-1.887-.85-1.887-1.887v-11.169c0-1.037.85-1.887 1.887-1.887h8.755c1.037 0 1.887.85 1.887 1.887v11.169c0 1.054-.85 1.887-1.887 1.887z" fill="url(#u)"/><path d="m345.299682 293.207h-8.755c-1.037 0-1.887-.85-1.887-1.887v-25.925c0-1.037.85-1.887 1.887-1.887h8.755c1.037 0 1.887.85 1.887 1.887v25.925c0 1.054-.833 1.887-1.887 1.887z" fill="url(#v)"/><path d="m365.299682 293.791h-8.755c-1.037 0-1.887-1.056968-1.887-2.346469v-56.590062c0-1.289501.85-2.346469 1.887-2.346469h8.755c1.037 0 1.887 1.056968 1.887 2.346469v56.590062c0 1.31064-.85 2.346469-1.887 2.346469z" fill="url(#w)"/><path d="m385.299682 293.943h-8.755c-1.037 0-1.887-.85-1.887-1.887v-39.661c0-1.037.85-1.887 1.887-1.887h8.755c1.037 0 1.887.85 1.887 1.887v39.661c0 1.054-.85 1.887-1.887 1.887z" fill="url(#x)"/><g transform="translate(188.334645 254.45166)"><g transform="matrix(.98768834 -.15643447 .15643447 .98768834 .241315 27.554041)"><path d="m182.120757 142.512282c-2.33054 13.217151-82.3804628 4.852577-92.7601812 3.022353-10.3797184-1.830225-17.3104527-11.728339-15.4802283-22.108057 1.8302244-10.379719 11.7283388-17.310453 22.1080572-15.480229 10.3797183 1.830225 88.4628923 21.348783 86.1323523 34.565933z" fill="url(#y)" transform="matrix(.54463904 -.83867057 .83867057 .54463904 -49.739644 165.872285)"/><ellipse cx="69.896598" cy="69.498" fill="url(#A)" rx="69.314101" ry="69.498"/><path d="m15.8552434 25.9741161c5.365695-1.3355722 10.9782691-2.0443531 16.7559497-2.0443531 38.281121 0 69.3141009 31.1153145 69.3141009 69.498 0 16.475729-5.7179719 31.61241-15.2727462 43.523884-5.3656951 1.335572-10.9782691 2.044353-16.7559498 2.044353-38.281121 0-69.31410118-31.115314-69.31410118-69.498 0-16.4757288 5.7179722-31.6124105 15.27274658-43.5238839z" fill="url(#B)"/><ellipse cx="60.039172" cy="87.778375" fill="url(#C)" rx="13.890746" ry="12.039897" transform="matrix(.79863551 .60181502 -.60181502 .79863551 64.916102 -18.457028)"/><ellipse cx="60.039172" cy="87.778375" fill="url(#D)" rx="7.118607" ry="6.170101" transform="matrix(.79863551 .60181502 -.60181502 .79863551 64.916102 -18.457028)"/><path d="m138.740184 61.3569882c.310748 2.670383.470515 5.3869901.470515 8.1410118 0 13.1468338-3.640785 25.4410605-9.966577 35.924365-4.066916.430097-7.852693.578368-11.235829.578368-7.976345 0-15.95269 0-23.929035 0-3.7908826 0-6.864-3.073118-6.864-6.8640003v-27.3176952c0-.0969013.0020519-.1937916.0061545-.290606.1604973-3.7874815 3.3609664-6.7277331 7.148448-6.5672394 18.2103765.7716778 33.0004855-.4297232 44.3703255-3.6042031z" fill="url(#F)"/><path d="m117.62593 88.4478859c.195138-6.7602923 3.379436-10.8702549 9.552895-12.3298877 9.260189-2.1894491 11.248468 3.76581 11.248468 8.0478489 0 4.2820388-2.636493-1.6317091-8.644971 0-6.008479 1.631709-8.278822 6.2224208-10.071253 6.2224208-1.194955 0-1.890001-.646794-2.085139-1.940382z" fill="#fff" opacity=".2"/><path d="m87.215258 93.6332368v-7.7323466l11.9968128-20.7790894c1.5007852.0354763 2.9766832.0565954 4.4276932.0633572z" fill="#fff" opacity=".2"/><path d="m102.396243 106.000733c-1.984121 0-3.9682424 0-5.9523635 0l23.9428835-41.4702902c2.202546-.1984372 4.327183-.4418184 6.373912-.7301439z" fill="url(#G)"/><path d="m93.482469 105.975149c-3.5114407-.302428-6.267211-3.2486-6.267211-6.8384163v-.3485982l19.40451-33.6095966c3.721073-.0344965 7.270405-.1680669 10.647996-.4007113z" fill="url(#H)"/></g><g transform="translate(17 150)"><path d="m79.5710801 156.299707c-21.0750896-1.02775-39.202941-12.072556-54.383554-33.134416-22.77091957-31.5927908-26.51894348-71.3947707-24.64493152-85.3078522 1.87401195-13.9130814 9.11953004-24.0272889 11.83442892-24.0272889h64.4059832c6.6931952 0 24.1554473-4.41817024 52.3867573-13.25451074 10.318022 3.81706428 14.538579 17.74833604 12.661674 41.79381524-2.815359 36.0682188-3.140304 47.2298141-16.862387 76.9027036-9.148056 19.781926-24.280713 32.124443-45.3979709 37.027549z" fill="url(#I)"/><path d="m140.665355 36.6852434c-10.666667 13.8637782-13.333334 34.3069054-8 61.3293819 5.333333 27.0224767 8 6.5793487 8-61.3293819z" fill="#1a57bf" mask="url(#M)"/></g><path d="m224.95852 181.611028c-2.589489 14.685723-91.533848 5.391752-103.066869 3.35817-11.53302-2.033583-19.233836-13.031488-17.200253-24.564508 2.033582-11.533021 13.031487-19.233837 24.564508-17.200254 11.53302 2.033583 98.292103 23.72087 95.702614 38.406592z" fill="url(#y)" transform="matrix(.64278761 -.76604444 .76604444 .64278761 -68.570764 185.567967)"/><path d="m93.2429966 169.517717c-25.4078855 1.289126-41.1889207 1.718835-47.3431056 1.289126-9.2312774-.644563-17.4978618-5.193508-17.4978618-7.39053 0-2.197021 2.5799729-4.128128 14.2586963-4.128128 11.6787233 0 26.6843897.578299 42.8905439-1.305477 16.2061546-1.883776 43.9008466-7.908589 49.4153456-9.023021 5.514498-1.114431 10.483399-.428561 10.483399 1.439725s-.560228 6.139269-14.421343 11.284585c-9.240744 3.430211-21.835969 6.041451-37.7856744 7.83372z" fill="url(#J)"/></g><g transform="translate(415 193)"><circle cx="19.894747" cy="19.797381" fill="url(#b)" r="19.44"/><g fill="#fff"><circle cx="19.894747" cy="12.597381" r="7.056"/><path d="m19.8947471 39.2373811c7.056 0 13.248-3.888 16.704-9.504-2.736-6.48-9.216-11.088-16.704-11.088s-13.96799998 4.608-16.70399998 11.088c3.312 5.616 9.50399998 9.504 16.70399998 9.504z" opacity=".7"/></g></g><path d="m453.528975 247h-37.536799c-1.153365 0-1.992176 1.08-1.992176 2.28v2.04c0 1.32.943662 2.28 1.992176 2.28h37.536799c1.153365 0 1.992176-1.08 1.992176-2.28v-2.04c.104852-1.32-.838811-2.28-1.992176-2.28z" fill="url(#K)"/><path d="m456.304494 258h-42.648988c-.86717 0-1.655506 1.08-1.655506 2.52v.24c0 1.32.709502 2.52 1.655506 2.52h42.648988c.867169 0 1.655506-1.08 1.655506-2.52v-.24c-.078834-1.44-.788337-2.52-1.655506-2.52z" fill="url(#L)"/><path d="m454 18c-4.970563 0-9-4.0294373-9-9 0-4.97056275 4.029437-9 9-9s9 4.02943725 9 9c0 4.9705627-4.029437 9-9 9zm0-4c2.761424 0 5-2.2385763 5-5 0-2.76142375-2.238576-5-5-5s-5 2.23857625-5 5c0 2.7614237 2.238576 5 5 5z" fill="url(#b)" fill-rule="nonzero"/><path d="m427 18c-4.970563 0-9-4.0294373-9-9 0-4.97056275 4.029437-9 9-9s9 4.02943725 9 9c0 4.9705627-4.029437 9-9 9zm0-4c2.761424 0 5-2.2385763 5-5 0-2.76142375-2.238576-5-5-5s-5 2.23857625-5 5c0 2.7614237 2.238576 5 5 5z" fill="url(#l)" fill-rule="nonzero"/><path d="m398 18c-4.970563 0-9-4.0294373-9-9 0-4.97056275 4.029437-9 9-9s9 4.02943725 9 9c0 4.9705627-4.029437 9-9 9zm0-4c2.761424 0 5-2.2385763 5-5 0-2.76142375-2.238576-5-5-5s-5 2.23857625-5 5c0 2.7614237 2.238576 5 5 5z" fill="#1b3668" fill-rule="nonzero"/><path d="m371 18c-4.970563 0-9-4.0294373-9-9 0-4.97056275 4.029437-9 9-9s9 4.02943725 9 9c0 4.9705627-4.029437 9-9 9zm0-4c2.761424 0 5-2.2385763 5-5 0-2.76142375-2.238576-5-5-5s-5 2.23857625-5 5c0 2.7614237 2.238576 5 5 5z" fill="url(#j)" fill-rule="nonzero"/></g></svg>