<svg xmlns="http://www.w3.org/2000/svg" width="42" height="42" viewBox="0 0 42 42">
    <g fill="none" fill-rule="evenodd">
        <path fill="#E5E7FD" d="M15.079 27.81c-3.363-5.057-.723-11.492 5.292-14.319 3.726-1.75 7.302-1.719 10.86-.243-3.86-2.944-9.664-3.647-14.464-1.392-6.015 2.827-8.166 9.218-4.804 14.275 1.28 1.925 3.176 3.376 5.363 4.282-.976-.745-1.568-1.581-2.247-2.603"/>
        <path stroke="#3964F9" stroke-linecap="round" stroke-linejoin="round" stroke-width="3" d="M27.608 29.452a11.043 11.043 0 0 0 4.265-8.747c0-6.503-5.547-11.691-12.097-10.946-4.778.544-8.728 4.37-9.46 9.196-.337 2.22-.02 4.339.785 6.189"/>
        <path stroke="#3964F9" stroke-linecap="round" stroke-linejoin="round" stroke-width="3" d="M11.101 25.144a11 11 0 0 0 4.997 5.366v3.325c0 1.046.834 1.894 1.864 1.894h6.131c1.03 0 1.864-.848 1.864-1.894v-1.373M16.098 39.735h9.86M15.112 20.705c0-3.32 2.648-6.01 5.916-6.01"/>
        <path stroke="#28CC8B" stroke-linecap="round" stroke-linejoin="round" stroke-width="3" d="M7.292 7.1l1.834 1.863M21.036 1.317V3.95M34.78 7.1l-1.833 1.863M40.473 21.063h-2.592M3.904 21.063H1.313"/>
    </g>
</svg>
