<svg xmlns="http://www.w3.org/2000/svg" width="42" height="40" viewBox="0 0 42 40">
    <g fill="none" fill-rule="evenodd">
        <path fill="#E5E7FD" d="M7.23 31.74c-.007-.072-.01-.246-.016-.318l-2.148-.054c-1.081-.002-1.806 1.4-1.366 2.488.682 1.682 1.847 3.844 3.556 3.844l-.026-5.96zM5.066 5.455C3.985 5.45 3.26 10.102 3.7 13.711c.682 5.585-.93 13.535.78 13.535a4.39 4.39 0 0 0 3.653-4.29c.08-9.071.067-15.455-.035-19.152L5.066 5.455z"/>
        <path stroke="#3964F9" stroke-linecap="round" stroke-linejoin="round" stroke-width="3" d="M35.623 37.916H6.08c-1.71 0-2.875-1.985-3.557-3.667-.44-1.088.285-2.312 1.366-2.31l34.554.059c1.203.002 1.898 1.484 1.221 2.58-.984 1.594-2.43 3.338-4.04 3.338zM4.737 26.088V9.665c0-3.995 2.94-7.233 6.569-7.233h19.091c3.628 0 6.569 3.238 6.569 7.233v16.423"/>
        <g stroke="#28CC8B" stroke-linecap="round" stroke-linejoin="round" stroke-width="2">
            <path d="M29.395 12.703l-7.953 8.756-4.772-5.254-3.182 3.503"/>
            <path d="M24.093 12.703h5.302v5.838"/>
        </g>
    </g>
</svg>
